<mxfile host="app.diagrams.net" agent="Mozilla/5.0 (X11; Linux x86_64) AppleWebKit/537.36 (KHTML, like Gecko) Chrome/138.0.0.0 Safari/537.36" version="28.1.0">
  <diagram name="Page-1" id="oCPiqE43nM-5TtfL8TEH">
    <mxGraphModel dx="964" dy="794" grid="1" gridSize="10" guides="1" tooltips="1" connect="1" arrows="1" fold="1" page="1" pageScale="1" pageWidth="850" pageHeight="1100" math="0" shadow="0">
      <root>
        <mxCell id="0" />
        <mxCell id="1" parent="0" />
        <mxCell id="glcoebHGGFf8UbgOov_I-13" style="edgeStyle=orthogonalEdgeStyle;rounded=0;orthogonalLoop=1;jettySize=auto;html=1;exitX=0;exitY=0;exitDx=80;exitDy=40;exitPerimeter=0;" parent="1" source="glcoebHGGFf8UbgOov_I-1" edge="1">
          <mxGeometry relative="1" as="geometry">
            <mxPoint x="520" y="440" as="targetPoint" />
          </mxGeometry>
        </mxCell>
        <mxCell id="glcoebHGGFf8UbgOov_I-1" value="semaphore.Wait()" style="html=1;shape=mxgraph.infographic.ribbonSimple;notch1=20;notch2=0;align=center;verticalAlign=middle;fontSize=14;fontStyle=0;flipH=1;fillColor=#FFFFFF;whiteSpace=wrap;" parent="1" vertex="1">
          <mxGeometry x="440" y="240" width="160" height="40" as="geometry" />
        </mxCell>
        <mxCell id="glcoebHGGFf8UbgOov_I-2" value="" style="endArrow=classic;html=1;rounded=0;entryX=0;entryY=0;entryDx=80;entryDy=0;entryPerimeter=0;" parent="1" target="glcoebHGGFf8UbgOov_I-1" edge="1">
          <mxGeometry width="50" height="50" relative="1" as="geometry">
            <mxPoint x="520" y="80" as="sourcePoint" />
            <mxPoint x="570" y="130" as="targetPoint" />
          </mxGeometry>
        </mxCell>
        <mxCell id="glcoebHGGFf8UbgOov_I-3" value="" style="endArrow=classic;html=1;rounded=0;entryX=0;entryY=0;entryDx=80;entryDy=0;entryPerimeter=0;" parent="1" target="glcoebHGGFf8UbgOov_I-1" edge="1">
          <mxGeometry width="50" height="50" relative="1" as="geometry">
            <mxPoint x="440" y="80" as="sourcePoint" />
            <mxPoint x="400" y="220" as="targetPoint" />
          </mxGeometry>
        </mxCell>
        <mxCell id="glcoebHGGFf8UbgOov_I-4" value="" style="endArrow=classic;html=1;rounded=0;entryX=0;entryY=0;entryDx=80;entryDy=0;entryPerimeter=0;" parent="1" target="glcoebHGGFf8UbgOov_I-1" edge="1">
          <mxGeometry width="50" height="50" relative="1" as="geometry">
            <mxPoint x="600" y="80" as="sourcePoint" />
            <mxPoint x="660" y="270" as="targetPoint" />
          </mxGeometry>
        </mxCell>
        <mxCell id="glcoebHGGFf8UbgOov_I-5" value="" style="endArrow=classic;html=1;rounded=0;entryX=0;entryY=0;entryDx=80;entryDy=0;entryPerimeter=0;" parent="1" target="glcoebHGGFf8UbgOov_I-1" edge="1">
          <mxGeometry width="50" height="50" relative="1" as="geometry">
            <mxPoint x="400" y="80" as="sourcePoint" />
            <mxPoint x="470" y="210" as="targetPoint" />
          </mxGeometry>
        </mxCell>
        <mxCell id="glcoebHGGFf8UbgOov_I-6" value="" style="endArrow=classic;html=1;rounded=0;entryX=0;entryY=0;entryDx=80;entryDy=0;entryPerimeter=0;" parent="1" target="glcoebHGGFf8UbgOov_I-1" edge="1">
          <mxGeometry width="50" height="50" relative="1" as="geometry">
            <mxPoint x="640" y="80" as="sourcePoint" />
            <mxPoint x="510" y="310" as="targetPoint" />
          </mxGeometry>
        </mxCell>
        <mxCell id="glcoebHGGFf8UbgOov_I-12" style="edgeStyle=orthogonalEdgeStyle;rounded=0;orthogonalLoop=1;jettySize=auto;html=1;exitX=1;exitY=0.5;exitDx=0;exitDy=0;exitPerimeter=0;dashed=1;" parent="1" source="glcoebHGGFf8UbgOov_I-9" target="glcoebHGGFf8UbgOov_I-1" edge="1">
          <mxGeometry relative="1" as="geometry" />
        </mxCell>
        <mxCell id="glcoebHGGFf8UbgOov_I-9" value="&lt;span style=&quot;font-size: 12px; text-wrap-mode: nowrap;&quot;&gt;semaphore.Release(3)&lt;/span&gt;" style="html=1;shape=mxgraph.infographic.ribbonSimple;notch1=0;notch2=20;align=center;verticalAlign=middle;fontSize=14;fontStyle=0;fillColor=#FFFFFF;whiteSpace=wrap;" parent="1" vertex="1">
          <mxGeometry x="160" y="240" width="160" height="40" as="geometry" />
        </mxCell>
        <mxCell id="glcoebHGGFf8UbgOov_I-10" value="" style="endArrow=classic;html=1;rounded=0;" parent="1" target="glcoebHGGFf8UbgOov_I-9" edge="1">
          <mxGeometry width="50" height="50" relative="1" as="geometry">
            <mxPoint x="240" y="80" as="sourcePoint" />
            <mxPoint x="290" y="30" as="targetPoint" />
          </mxGeometry>
        </mxCell>
        <mxCell id="glcoebHGGFf8UbgOov_I-11" value="" style="endArrow=classic;html=1;rounded=0;exitX=0.494;exitY=1.025;exitDx=0;exitDy=0;exitPerimeter=0;" parent="1" source="glcoebHGGFf8UbgOov_I-9" edge="1">
          <mxGeometry width="50" height="50" relative="1" as="geometry">
            <mxPoint x="240" y="320" as="sourcePoint" />
            <mxPoint x="240" y="440" as="targetPoint" />
          </mxGeometry>
        </mxCell>
        <mxCell id="glcoebHGGFf8UbgOov_I-15" value="" style="endArrow=classic;html=1;rounded=0;exitX=0;exitY=0;exitDx=80;exitDy=40;exitPerimeter=0;" parent="1" source="glcoebHGGFf8UbgOov_I-1" edge="1">
          <mxGeometry width="50" height="50" relative="1" as="geometry">
            <mxPoint x="530" y="290" as="sourcePoint" />
            <mxPoint x="600" y="440" as="targetPoint" />
          </mxGeometry>
        </mxCell>
        <mxCell id="glcoebHGGFf8UbgOov_I-16" value="" style="endArrow=classic;html=1;rounded=0;exitX=0;exitY=0;exitDx=80;exitDy=40;exitPerimeter=0;" parent="1" source="glcoebHGGFf8UbgOov_I-1" edge="1">
          <mxGeometry width="50" height="50" relative="1" as="geometry">
            <mxPoint x="570" y="300" as="sourcePoint" />
            <mxPoint x="640" y="440" as="targetPoint" />
          </mxGeometry>
        </mxCell>
        <mxCell id="glcoebHGGFf8UbgOov_I-17" value="Semaphore(1)" style="text;html=1;align=center;verticalAlign=middle;resizable=0;points=[];autosize=1;strokeColor=none;fillColor=none;" parent="1" vertex="1">
          <mxGeometry x="60" y="58" width="100" height="30" as="geometry" />
        </mxCell>
        <mxCell id="0TomC-TLxJLsjVoDcg_B-1" value="" style="endArrow=classic;html=1;rounded=0;exitX=0;exitY=0;exitDx=80;exitDy=40;exitPerimeter=0;" edge="1" parent="1" source="glcoebHGGFf8UbgOov_I-1">
          <mxGeometry width="50" height="50" relative="1" as="geometry">
            <mxPoint x="510" y="300" as="sourcePoint" />
            <mxPoint x="440" y="440" as="targetPoint" />
          </mxGeometry>
        </mxCell>
        <mxCell id="0TomC-TLxJLsjVoDcg_B-2" value="" style="endArrow=classic;html=1;rounded=0;exitX=0;exitY=0;exitDx=80;exitDy=40;exitPerimeter=0;" edge="1" parent="1" source="glcoebHGGFf8UbgOov_I-1">
          <mxGeometry width="50" height="50" relative="1" as="geometry">
            <mxPoint x="530" y="440" as="sourcePoint" />
            <mxPoint x="400" y="440" as="targetPoint" />
          </mxGeometry>
        </mxCell>
      </root>
    </mxGraphModel>
  </diagram>
</mxfile>
